<?xml version="1.0" encoding="UTF-8"?><svg id="Layer_1" xmlns="http://www.w3.org/2000/svg" viewBox="0 0 375.14 87.66"><defs><style>.cls-1{fill:#fff;}.cls-2{fill:#652c89;}.cls-3{fill:#e3262c;}</style></defs><rect class="cls-2" x="97.14" y=".66" width="278" height="87" rx="8.75" ry="8.75"/><rect class="cls-2" width="87" height="87" rx="8.75" ry="8.75"/><g><g><g><path class="cls-1" d="M363.95,39.32c-.09-.11-.25-.23-.53-.23h-4.41c-.35,0-.6,.12-.75,.35-.02,.03-.04,.07-.06,.11-1.46,3.4-4.57,5.75-8.13,6.15l-.03,.28s-.04,0-.06,0h0l-.03-.27c-.31,.03-.63,.05-.95,.05-.39,0-.78-.03-1.21-.08l-.1-.02-.1-.02c-.33-.05-.66-.11-.98-.19l-.19-.05c-.35-.1-.69-.21-1.02-.34-1.18-.48-2.2-1.13-3.1-1.97-.21-.2-.41-.41-.63-.65l17.06-11.65,3.8-2.59c.24-.16,.31-.48,.17-.73-.14-.25-.29-.49-.44-.73l-.52-.76c-.55-.76-1.14-1.44-1.75-2.04-2.95-2.89-6.85-4.48-10.96-4.48-8.69,0-15.76,7.11-15.76,15.84,0,2.09,.4,4.13,1.2,6.06,.57,1.37,1.33,2.66,2.27,3.84,3.01,3.78,7.5,5.94,12.3,5.94,6.95,0,13-4.49,15.05-11.17,.07-.34-.02-.53-.11-.64l-.03-.02Zm-9.04-12.48l-15.73,10.74c-.17-.76-.25-1.53-.25-2.29,0-5.78,4.52-10.48,10.07-10.48,2.12,0,4.19,.71,5.91,2.02h0Zm-7.19,19.39h0Z"/><path class="cls-1" d="M349.01,51.71c-4.98,0-9.63-2.25-12.75-6.16-.97-1.22-1.76-2.56-2.35-3.98-.83-2-1.24-4.12-1.24-6.28,0-9.06,7.33-16.43,16.34-16.43,4.27,0,8.31,1.65,11.37,4.65,.64,.63,1.25,1.34,1.82,2.12l.53,.77c.17,.26,.32,.51,.47,.77,.29,.51,.14,1.17-.35,1.5l-20.29,13.86s.09,.09,.13,.13c.86,.8,1.82,1.41,2.92,1.86,.31,.12,.63,.23,.96,.32l.19,.05c.29,.07,.6,.13,.92,.18l.16,.03c.8,.1,1.38,.09,2.01,.03l.17-.02c3.35-.37,6.28-2.59,7.65-5.8,.03-.08,.07-.15,.12-.22,.16-.25,.52-.59,1.22-.59h4.41c.39,0,.74,.16,.98,.45h0c.17,.21,.35,.57,.23,1.13-2.14,6.98-8.41,11.63-15.62,11.63h0Zm0-31.69c-8.37,0-15.18,6.85-15.18,15.26,0,2.02,.39,3.98,1.16,5.84,.54,1.32,1.28,2.56,2.18,3.7,2.9,3.64,7.22,5.72,11.84,5.72,6.69,0,12.52-4.32,14.49-10.76v-.1h0s-.02-.02-.07-.02h-4.41c-.14,0-.22,.03-.25,.08-1.5,3.47-4.59,5.9-8.16,6.46l-.04,.28-1.05,.13-.06-.29c-.55,.03-1.1,0-1.74-.07l-.12-.02c-.45-.07-.8-.14-1.14-.22l-.2-.05c-.37-.1-.74-.22-1.09-.36-1.24-.5-2.32-1.19-3.28-2.09-.22-.21-.44-.44-.67-.69l-.44-.5,21.4-14.61c-.15-.2-.29-.43-.44-.66l-.51-.74c-.52-.71-1.09-1.38-1.68-1.96-2.84-2.78-6.59-4.32-10.55-4.32h.01Zm-10.21,18.52l-.19-.84c-.18-.8-.27-1.61-.27-2.41,0-6.1,4.78-11.06,10.66-11.06,2.22,0,4.45,.76,6.26,2.14l.64,.49-17.11,11.68h0Zm10.2-13.15c-5.23,0-9.49,4.44-9.49,9.9,0,.43,.03,.86,.09,1.29l14.28-9.75c-1.47-.93-3.18-1.44-4.88-1.44Z"/></g><g><path class="cls-1" d="M139.48,19.44c-3.88,0-7.06,1.53-9.44,4.56-2.21-3.03-5.4-4.56-9.5-4.56-2.67,0-4.89,.74-6.63,2.2v-.4c0-.59-.48-1.07-1.07-1.07h-3.6c-.59,0-1.07,.48-1.07,1.07v28.84c0,.59,.48,1.07,1.07,1.07h3.6c.59,0,1.07-.48,1.07-1.07v-17c0-2.49,.53-4.48,1.56-5.92,1.12-1.58,2.78-2.35,5.07-2.35s3.92,.77,5.04,2.35c1.04,1.44,1.56,3.43,1.56,5.92v17c0,.59,.48,1.07,1.07,1.07h3.6c.59,0,1.07-.48,1.07-1.07v-17c0-2.49,.53-4.48,1.56-5.92,1.12-1.58,2.77-2.35,5.04-2.35s3.93,.77,5.07,2.35c1.02,1.43,1.54,3.42,1.54,5.92v17c0,.59,.48,1.07,1.07,1.07h3.62c.59,0,1.07-.48,1.07-1.07v-17.43c0-3.81-1.08-6.95-3.21-9.36-2.25-2.56-5.33-3.86-9.15-3.86h-.01Z"/><path class="cls-1" d="M150.77,51.73h-3.62c-.91,0-1.65-.74-1.65-1.65v-17c0-2.37-.48-4.25-1.43-5.58-1.02-1.41-2.52-2.1-4.59-2.1s-3.56,.69-4.57,2.1c-.96,1.34-1.45,3.21-1.45,5.58v17c0,.91-.74,1.65-1.65,1.65h-3.6c-.91,0-1.65-.74-1.65-1.65v-17c0-2.37-.49-4.24-1.45-5.58-1.01-1.42-2.5-2.1-4.57-2.1s-3.59,.69-4.59,2.1c-.96,1.34-1.45,3.21-1.45,5.58v17c0,.91-.74,1.65-1.65,1.65h-3.6c-.91,0-1.65-.74-1.65-1.65V21.23c0-.91,.74-1.65,1.65-1.65h3.6c.67,0,1.26,.41,1.51,.99,1.71-1.14,3.78-1.72,6.18-1.72,4.01,0,7.21,1.42,9.51,4.21,2.44-2.8,5.61-4.21,9.42-4.21s7.22,1.36,9.59,4.05c2.23,2.51,3.35,5.79,3.35,9.74v17.43c0,.91-.74,1.65-1.65,1.65h0Zm-11.29-27.48c2.47,0,4.29,.85,5.54,2.59,1.09,1.54,1.65,3.64,1.65,6.26v17c0,.27,.22,.48,.48,.48h3.62c.27,0,.48-.22,.48-.48v-17.43c0-3.66-1.03-6.68-3.06-8.97-2.13-2.43-5.06-3.66-8.71-3.66s-6.71,1.46-8.98,4.34l-.48,.6-.45-.62c-2.1-2.87-5.13-4.32-9.03-4.32-2.52,0-4.63,.69-6.25,2.06l-.96,.8v-1.65c0-.27-.22-.48-.48-.48h-3.6c-.27,0-.48,.22-.48,.48v28.84c0,.27,.22,.48,.48,.48h3.6c.27,0,.48-.22,.48-.48v-17c0-2.62,.56-4.72,1.67-6.26,1.24-1.74,3.05-2.59,5.54-2.59s4.28,.85,5.52,2.59c1.11,1.53,1.67,3.64,1.67,6.26v17c0,.27,.22,.48,.48,.48h3.6c.27,0,.48-.22,.48-.48v-17c0-2.62,.56-4.72,1.67-6.26,1.24-1.74,3.04-2.59,5.52-2.59h0Z"/></g><g><path class="cls-1" d="M223.68,10.21h-3.62c-.59,0-1.07,.48-1.07,1.07v11.97c-2.58-2.53-5.93-3.81-10-3.81-4.46,0-8.3,1.51-11.42,4.49-3.17,3.03-4.78,6.83-4.78,11.31s1.59,8.32,4.72,11.35c3.11,3.02,6.97,4.55,11.48,4.55,4.07,0,7.43-1.29,10-3.85v2.78c0,.59,.48,1.07,1.07,1.07h3.62c.59,0,1.07-.48,1.07-1.07V11.28c0-.59-.48-1.07-1.07-1.07Zm-4.46,25.13c0,2.87-.99,5.34-2.94,7.36-1.98,2.04-4.43,3.07-7.28,3.07-3,0-5.52-.99-7.5-2.94-1.98-1.96-2.98-4.46-2.98-7.44s1-5.58,2.96-7.58c1.96-1.99,4.49-3,7.51-3,2.85,0,5.3,1.05,7.28,3.12,1.96,2.05,2.95,4.54,2.95,7.41Z"/><path class="cls-1" d="M223.68,51.73h-3.62c-.91,0-1.65-.74-1.65-1.65v-1.47c-2.53,2.07-5.69,3.12-9.42,3.12-4.67,0-8.67-1.59-11.89-4.71-3.25-3.14-4.9-7.1-4.9-11.77s1.67-8.59,4.96-11.73c3.24-3.09,7.22-4.66,11.83-4.66,3.72,0,6.88,1.04,9.42,3.09V11.28c0-.91,.74-1.65,1.65-1.65h3.62c.91,0,1.65,.74,1.65,1.65V50.08c0,.91-.74,1.65-1.65,1.65h0Zm-4.1-5.83v4.18c0,.27,.22,.48,.48,.48h3.62c.27,0,.48-.22,.48-.48V11.28c0-.27-.22-.48-.48-.48h-3.62c-.27,0-.48,.22-.48,.48v13.36l-.99-.97c-2.46-2.42-5.69-3.64-9.59-3.64-4.3,0-8.01,1.46-11.02,4.33-3.05,2.91-4.6,6.58-4.6,10.89s1.53,8.02,4.55,10.93c3,2.91,6.72,4.39,11.07,4.39,3.91,0,7.13-1.24,9.59-3.68l.99-.99h0Zm-10.58,.46c-3.16,0-5.82-1.04-7.91-3.1-2.09-2.08-3.15-4.72-3.15-7.86s1.05-5.87,3.13-7.99c2.08-2.11,4.74-3.17,7.93-3.17,3.02,0,5.61,1.11,7.7,3.3,2.06,2.16,3.11,4.79,3.11,7.81s-1.05,5.63-3.11,7.76c-2.09,2.16-4.68,3.25-7.7,3.25Zm0-20.95c-2.86,0-5.25,.95-7.1,2.83-1.86,1.88-2.8,4.3-2.8,7.17s.94,5.18,2.81,7.03c1.86,1.84,4.25,2.77,7.09,2.77,2.69,0,5-.97,6.86-2.89,1.84-1.9,2.78-4.24,2.78-6.95s-.94-5.07-2.79-7.01c-1.86-1.95-4.17-2.94-6.85-2.94h0Z"/></g><g><path class="cls-1" d="M231.42,20.17h3.6c.59,0,1.07,.48,1.07,1.07v28.84c0,.59-.48,1.07-1.07,1.07h-3.6c-.59,0-1.07-.48-1.07-1.07V21.23c0-.59,.48-1.07,1.07-1.07h0Z"/><path class="cls-1" d="M235.02,51.73h-3.6c-.91,0-1.65-.74-1.65-1.65V21.23c0-.91,.74-1.65,1.65-1.65h3.6c.91,0,1.65,.74,1.65,1.65v28.84c0,.91-.74,1.65-1.65,1.65h0Zm-3.6-30.96c-.27,0-.48,.22-.48,.48v28.84c0,.27,.22,.48,.48,.48h3.6c.27,0,.48-.22,.48-.48V21.23c0-.27-.22-.48-.48-.48h-3.6Z"/></g><g><path class="cls-1" d="M233.22,11.03c-1.68,0-3.05,1.37-3.05,3.05s1.37,3.06,3.05,3.06,3.05-1.37,3.05-3.05-1.37-3.06-3.05-3.06Z"/><path class="cls-1" d="M233.22,17.72c-2,0-3.63-1.63-3.63-3.64s1.63-3.63,3.63-3.63,3.63,1.63,3.63,3.64-1.63,3.63-3.63,3.63Zm0-6.11c-1.36,0-2.47,1.11-2.47,2.47s1.11,2.47,2.47,2.47,2.47-1.11,2.47-2.47-1.11-2.47-2.47-2.47Z"/></g><g><path class="cls-1" d="M270.88,40.03h-3.97c-.4,0-.76,.22-.95,.58-1.8,3.47-4.74,5.16-8.99,5.16-2.96,0-5.49-1.02-7.52-3.04-2.03-2.01-3.05-4.53-3.05-7.49s1.04-5.41,3.1-7.41c2.03-2,4.55-3.02,7.48-3.02,4.14,0,7.08,1.77,8.99,5.42,.18,.35,.54,.57,.94,.57h3.97c.35,0,.68-.18,.88-.47,.2-.29,.24-.66,.11-.99-1.22-3.04-3.23-5.5-5.99-7.29-2.68-1.73-5.71-2.61-9-2.61-4.41,0-8.24,1.55-11.4,4.6-3.19,3.1-4.8,6.9-4.8,11.3s1.61,8.23,4.78,11.28c3.13,3,6.97,4.52,11.43,4.52,6.71,0,11.74-3.22,14.96-9.56,.17-.33,.15-.73-.04-1.04s-.54-.51-.91-.51h-.02Z"/><path class="cls-1" d="M256.87,51.73c-4.61,0-8.59-1.58-11.83-4.68-3.29-3.16-4.96-7.1-4.96-11.7s1.67-8.51,4.98-11.72c3.27-3.16,7.25-4.77,11.81-4.77,3.41,0,6.55,.91,9.32,2.7,2.86,1.86,4.95,4.4,6.22,7.56,.2,.51,.14,1.08-.17,1.54-.31,.45-.82,.72-1.37,.72h-3.97c-.62,0-1.18-.34-1.46-.88-1.8-3.43-4.57-5.1-8.47-5.1-2.77,0-5.15,.96-7.07,2.85-1.94,1.88-2.93,4.24-2.93,6.99s.97,5.18,2.88,7.08c1.92,1.9,4.31,2.87,7.11,2.87,4.01,0,6.78-1.58,8.47-4.84,.28-.55,.85-.89,1.47-.89h3.97c.57,0,1.11,.3,1.4,.79,.3,.48,.32,1.1,.07,1.61-3.32,6.56-8.53,9.88-15.48,9.88h.01Zm0-31.71c-4.25,0-7.95,1.49-11,4.44-3.07,2.98-4.62,6.64-4.62,10.88s1.55,7.93,4.6,10.86c3.01,2.89,6.72,4.36,11.02,4.36,6.47,0,11.33-3.11,14.44-9.24,.07-.15,.07-.33-.02-.47s-.25-.23-.41-.23h-3.97c-.18,0-.35,.1-.43,.26-1.91,3.68-5.01,5.47-9.5,5.47-3.12,0-5.79-1.08-7.93-3.2-2.14-2.13-3.23-4.79-3.23-7.91s1.1-5.72,3.28-7.83c2.14-2.11,4.8-3.18,7.88-3.18,4.37,0,7.48,1.87,9.51,5.73,.08,.16,.25,.26,.43,.26h3.97c.16,0,.31-.08,.4-.21s.11-.3,.05-.45c-1.17-2.93-3.11-5.29-5.77-7.02-2.58-1.67-5.51-2.52-8.69-2.52h-.01Z"/></g><g><path class="cls-1" d="M187.6,39.08h-4.41c-.35,0-.6,.12-.75,.35-.02,.03-.04,.07-.06,.11-1.46,3.4-4.57,5.75-8.13,6.15l-.03,.28s-.04,0-.06,0h0l-.03-.27c-.31,.03-.63,.05-.95,.05-.39,0-.78-.03-1.21-.08l-.1-.02-.1-.02c-.33-.05-.66-.11-.98-.19l-.19-.05c-.35-.1-.69-.21-1.02-.34-1.18-.48-2.2-1.13-3.1-1.97-.21-.2-.41-.41-.63-.65l17.06-11.65,3.8-2.59c.24-.16,.31-.48,.17-.73s-.29-.49-.44-.73l-.52-.76c-.55-.76-1.14-1.44-1.75-2.04-2.95-2.89-6.85-4.48-10.96-4.48-8.69,0-15.76,7.11-15.76,15.84,0,2.09,.4,4.13,1.2,6.06,.57,1.37,1.33,2.66,2.27,3.84,3.01,3.78,7.5,5.94,12.29,5.94,6.95,0,13-4.49,15.05-11.17,.07-.34-.02-.53-.11-.64s-.25-.23-.53-.23l-.02-.02Zm-14.42-14.27c2.12,0,4.19,.71,5.91,2.02l-15.73,10.74c-.17-.76-.25-1.53-.25-2.29,0-5.78,4.52-10.48,10.07-10.48h0Zm-1.28,21.41h0Z"/><path class="cls-1" d="M173.18,51.71c-4.98,0-9.63-2.25-12.75-6.16-.97-1.22-1.76-2.56-2.35-3.98-.83-2-1.24-4.12-1.24-6.28,0-9.06,7.33-16.43,16.34-16.43,4.27,0,8.31,1.65,11.37,4.65,.64,.63,1.25,1.34,1.82,2.12l.53,.77c.17,.26,.32,.51,.47,.77,.29,.51,.14,1.17-.35,1.5l-20.3,13.86s.09,.09,.13,.13c.86,.8,1.82,1.41,2.92,1.86,.31,.12,.63,.23,.96,.32l.19,.05c.29,.07,.6,.13,.92,.18l.16,.03c.8,.1,1.38,.09,2.01,.03l.17-.02c3.35-.37,6.28-2.59,7.66-5.8,.03-.07,.07-.15,.12-.22,.16-.25,.52-.59,1.22-.59h4.41c.39,0,.74,.16,.98,.45,.17,.21,.35,.57,.23,1.13-2.14,6.98-8.41,11.63-15.62,11.63h0Zm0-31.69c-8.37,0-15.18,6.85-15.18,15.26,0,2.01,.39,3.98,1.16,5.84,.54,1.32,1.28,2.56,2.18,3.7,2.9,3.64,7.22,5.72,11.84,5.72,6.69,0,12.52-4.32,14.49-10.76v-.1l-.07-.02h-4.41c-.14,0-.22,.03-.25,.08-1.5,3.47-4.59,5.9-8.16,6.46l-.04,.28-1.04,.13-.06-.29c-.55,.03-1.1,0-1.74-.07l-.12-.02c-.45-.07-.8-.14-1.14-.22l-.2-.05c-.37-.1-.74-.22-1.09-.36-1.24-.5-2.32-1.19-3.28-2.09-.22-.21-.44-.44-.67-.69l-.44-.5,21.4-14.61c-.15-.2-.29-.43-.44-.66l-.51-.74c-.52-.71-1.09-1.38-1.68-1.96-2.84-2.78-6.59-4.32-10.55-4.32h0Zm-10.21,18.52l-.19-.84c-.18-.8-.27-1.61-.27-2.41,0-6.1,4.78-11.06,10.66-11.06,2.22,0,4.45,.76,6.26,2.14l.64,.49-17.11,11.68h.01Zm10.2-13.15c-5.23,0-9.49,4.44-9.49,9.9,0,.43,.03,.86,.09,1.29l14.28-9.75c-1.47-.93-3.18-1.44-4.88-1.44h0Z"/></g><g><path class="cls-1" d="M297.98,19.72h-.62c-5.25,0-9.52,4.27-9.52,9.52v1.98h-1.71c-5.25,0-9.52,4.27-9.52,9.52v.62c0,5.25,4.27,9.52,9.52,9.52h21.09c.15,0,.28-.12,.28-.28V29.23c0-5.25-4.27-9.52-9.52-9.52h0Zm-16.82,21.02c0-2.74,2.23-4.97,4.97-4.97h5.99c.15,0,.28-.12,.28-.28v-6.25c0-2.74,2.23-4.96,4.97-4.96h.62c2.74,0,4.96,2.23,4.96,4.96v17.08h-16.82c-2.74,0-4.97-2.23-4.97-4.96v-.62h0Z"/><path class="cls-1" d="M307.22,51.45h-21.09c-5.57,0-10.1-4.53-10.1-10.1v-.62c0-5.57,4.53-10.1,10.1-10.1h1.13v-1.4c0-5.57,4.53-10.1,10.1-10.1h.62c5.57,0,10.1,4.53,10.1,10.1v21.36c0,.47-.39,.86-.86,.86h0Zm-21.09-19.66c-4.93,0-8.93,4.01-8.93,8.93v.62c0,4.93,4.01,8.93,8.93,8.93h20.78V29.23c0-4.93-4.01-8.93-8.93-8.93h-.62c-4.93,0-8.93,4.01-8.93,8.93v2.56h-2.3Zm17.4,15.1h-17.4c-3.06,0-5.55-2.49-5.55-5.55v-.62c0-3.06,2.49-5.55,5.55-5.55h5.68v-5.95c0-3.06,2.49-5.55,5.55-5.55h.62c3.06,0,5.55,2.49,5.55,5.55v17.67h0Zm-17.4-10.55c-2.42,0-4.38,1.97-4.38,4.38v.62c0,2.42,1.97,4.38,4.38,4.38h16.23V29.23c0-2.42-1.97-4.38-4.38-4.38h-.62c-2.42,0-4.38,1.97-4.38,4.38v6.25c0,.47-.39,.86-.86,.86h-5.99Z"/></g><g><path class="cls-1" d="M332.95,19.92s-.07-.04-.1-.05c-1.62-.54-3.27-.81-4.92-.81-3.72,0-7.25,1.29-10.08,3.67v-.85c0-.61-.5-1.11-1.11-1.11h-3.47c-.61,0-1.11,.5-1.11,1.11v28.15c0,.61,.5,1.11,1.11,1.11h3.47c.61,0,1.11-.5,1.11-1.11v-15.27c.08-5.69,4.59-10.32,10.07-10.32h.4c.65,0,.99-.25,1.13-.39,2.21-1.79,3.11-2.51,3.47-2.85v.02c.36-.22,.43-.49,.43-.67,0-.25-.15-.48-.4-.63Z"/><path class="cls-1" d="M316.74,51.73h-3.47c-.93,0-1.69-.76-1.69-1.69V21.89c0-.93,.76-1.69,1.69-1.69h3.47c.82,0,1.51,.59,1.66,1.37,4.14-2.99,9.6-3.92,14.63-2.24,.07,.02,.14,.05,.21,.1h0c.43,.25,.68,.67,.69,1.13,0,.27-.08,.79-.69,1.18l-.09,.05c-.44,.39-1.32,1.1-3.28,2.69-.24,.23-.74,.64-1.74,.57h-.24c-5.13,0-9.38,4.36-9.46,9.73v15.27c0,.93-.76,1.69-1.69,1.69h0Zm-3.47-30.37c-.29,0-.52,.24-.52,.52v28.15c0,.29,.24,.52,.52,.52h3.47c.29,0,.52-.24,.52-.52v-15.19c.09-6.1,4.87-10.98,10.66-10.98h.4c.45,.01,.65-.14,.72-.21l.11-.09c2.15-1.74,3.03-2.46,3.38-2.78l.24-.22c0-.06-.08-.11-.11-.13-5.05-1.68-10.51-.54-14.43,2.75l-.96,.8v-2.1c0-.29-.24-.52-.52-.52h-3.48Z"/></g></g><g><path class="cls-1" d="M332.19,63.05c-.92-.69-2.05-1.11-3.29-1.11-1.5,0-2.85,.6-3.84,1.58v-.76c0-.11-.09-.2-.2-.2h-1.25c-.11,0-.2,.09-.2,.2v10.18c0,.11,.09,.2,.2,.2h1.25c.11,0,.2-.09,.2-.2v-5.53h0c.03-2.17,1.74-3.93,3.84-3.93,.73,0,1.42,.22,2,.59,.38-.41,.81-.75,1.29-1.03h0Z"/><rect class="cls-1" x="242.57" y="59.01" width="1.75" height="14.14" rx=".23" ry=".23"/><path class="cls-1" d="M251.89,62.32c-1.52,0-2.83,.56-3.9,1.67-1.06,1.09-1.6,2.42-1.6,3.94s.55,2.77,1.64,3.84c1.08,1.07,2.38,1.62,3.86,1.62s2.82-.55,3.9-1.64c1.08-1.08,1.63-2.39,1.63-3.9s-.55-2.81-1.64-3.9c-1.09-1.09-2.4-1.64-3.89-1.64h0Zm.02,9.46c-1.05,0-1.93-.38-2.67-1.15-.73-.76-1.1-1.67-1.1-2.71s.36-2.01,1.08-2.78c.74-.8,1.62-1.19,2.69-1.19s1.91,.38,2.66,1.15c.74,.77,1.1,1.66,1.1,2.71s-.36,2.03-1.06,2.8c-.72,.78-1.63,1.17-2.7,1.17h0Z"/><path class="cls-1" d="M268.58,62.58h-1.39c-.09,0-.17,.05-.21,.14l-3.41,8-3.35-8c-.04-.08-.12-.14-.21-.14h-1.39c-.08,0-.15,.04-.19,.1-.04,.06-.05,.14-.02,.22l4.27,10.11c.04,.08,.12,.14,.21,.14h1.43c.09,0,.17-.06,.21-.14l4.27-10.11c.03-.07,.02-.15-.02-.22-.04-.06-.11-.1-.19-.1h0Z"/><path class="cls-1" d="M297.17,62.58h-1.36c-.09,0-.17,.05-.21,.14l-3.22,7.55-3.01-7.54c-.03-.09-.12-.14-.21-.14h-1.37c-.08,0-.15,.04-.19,.1-.04,.06-.05,.14-.02,.21l3.9,9.68-1.71,3.79c-.03,.07-.03,.15,.02,.22,.04,.07,.11,.1,.19,.1h1.34c.09,0,.17-.05,.21-.14l5.86-13.65c.03-.07,.02-.15-.02-.22s-.11-.1-.19-.1h-.01Z"/><path class="cls-1" d="M304.02,62.32c-1.52,0-2.83,.56-3.9,1.67-1.06,1.09-1.6,2.42-1.6,3.94s.55,2.77,1.64,3.84c1.08,1.07,2.38,1.62,3.86,1.62s2.82-.55,3.9-1.64c1.08-1.08,1.63-2.39,1.63-3.9s-.55-2.81-1.64-3.9c-1.09-1.09-2.4-1.64-3.89-1.64h0Zm.02,9.46c-1.05,0-1.93-.38-2.67-1.15-.73-.76-1.1-1.67-1.1-2.71s.36-2.01,1.08-2.78c.74-.8,1.62-1.19,2.69-1.19s1.91,.38,2.66,1.15c.74,.77,1.1,1.66,1.1,2.71s-.36,2.03-1.06,2.8c-.72,.78-1.63,1.17-2.7,1.17h0Z"/><path class="cls-1" d="M320.62,62.58h-1.29c-.13,0-.23,.1-.23,.23v5.34c0,.63-.06,1.16-.19,1.57-.15,.5-.42,.93-.8,1.29-.53,.5-1.2,.76-1.99,.76-1.02,0-1.75-.31-2.22-.94-.41-.56-.62-1.39-.62-2.46v-5.56c0-.13-.1-.23-.23-.23h-1.29c-.13,0-.23,.1-.23,.23v5.58c0,.67,.06,1.26,.18,1.77,.15,.64,.41,1.19,.76,1.63,.84,1.06,2.07,1.6,3.65,1.6,.74,0,1.41-.16,2-.47,.42-.22,.77-.5,1.05-.84v.84c0,.13,.1,.23,.23,.23h1.22c.13,0,.23-.1,.23-.23v-10.11c0-.13-.1-.23-.23-.23h0Z"/><g><path class="cls-1" d="M364.63,69.47h-1.61c-.06,0-.09,0-.11,.04h0c-.6,1.4-1.96,2.38-3.53,2.38-1.32,0-2.49-.69-3.19-1.75l8.15-4.71h0c-.9-1.84-2.78-3.11-4.96-3.11-3.06,0-5.53,2.49-5.53,5.56s2.48,5.56,5.53,5.56c2.49,0,4.59-1.65,5.28-3.92,0-.05,0-.06-.04-.06h0Zm-9.11-1.57c0-2.21,1.73-4.01,3.87-4.01,1.05,0,2,.44,2.7,1.15l-6.48,3.68c-.05-.26-.08-.54-.08-.82h-.01Z"/><rect class="cls-1" x="339.41" y="59.01" width="1.75" height="14.14" rx=".23" ry=".23"/><rect class="cls-1" x="343.66" y="59.01" width="1.75" height="2.79" rx=".23" ry=".23"/><rect class="cls-1" x="343.66" y="62.58" width="1.75" height="10.56" rx=".23" ry=".23"/><path class="cls-1" d="M352.73,58.77h0c-.99,0-1.8,.18-2.41,.51-.77,.4-1.27,1.06-1.51,1.96-.06,.23-.11,.49-.13,.8-.01,.11-.02,.24-.03,.39v.16h-1.36c-.13,0-.23,.1-.23,.23v1.17c0,.13,.1,.23,.23,.23h1.34v8.71c0,.13,.1,.23,.23,.23h1.29c.13,0,.23-.1,.23-.23v-8.71h2.36c.13,0,.23-.1,.23-.23v-1.17c0-.13-.1-.23-.23-.23h-2.36c.05-1.47,.8-2.15,2.36-2.15,.13,0,.23-.1,.23-.23v-1.2c0-.06-.02-.12-.07-.16-.04-.04-.1-.07-.16-.07h-.01Z"/></g><path class="cls-1" d="M280.53,69.47h-1.61c-.06,0-.09,0-.11,.04h0c-.6,1.4-1.96,2.38-3.53,2.38-1.32,0-2.49-.69-3.19-1.75l8.15-4.71h0c-.9-1.84-2.78-3.11-4.96-3.11-3.06,0-5.53,2.49-5.53,5.56s2.48,5.56,5.53,5.56c2.49,0,4.59-1.65,5.28-3.92,0-.05,0-.06-.04-.06h0Zm-9.11-1.57c0-2.21,1.73-4.01,3.87-4.01,1.05,0,2,.44,2.7,1.15l-6.48,3.68c-.05-.26-.08-.54-.08-.82h-.01Z"/></g></g><g><path class="cls-3" d="M42.91,69.42h26.36V28.23c0-6.87-5.57-12.44-12.44-12.44h-1.47c-6.87,0-12.44,5.57-12.44,12.44v14.84h-14.22c-6.87,0-12.44,5.57-12.44,12.44v1.47c0,6.87,5.57,12.44,12.44,12.44h14.2Z"/><path class="cls-1" d="M56.47,18.77c6.34,0,11.47,5.14,11.47,11.47v38H30.53c-6.34,0-11.47-5.14-11.47-11.47v-1.36c0-6.34,5.14-11.47,11.47-11.47h13.11v-13.69c0-6.34,5.14-11.47,11.47-11.47h1.36m0-8.75h-1.36c-11.15,0-20.22,9.07-20.22,20.22v4.94h-4.35c-11.15,0-20.22,9.07-20.22,20.22v1.36c0,11.15,9.07,20.22,20.22,20.22h46.17V30.24c0-11.15-9.07-20.22-20.22-20.22h-.02Z"/></g></svg>